<svg xmlns="http://www.w3.org/2000/svg" width="16px" height="18px" viewBox="0 0 16 18">
  <path fill="#98A0A7" stroke-width="0" fill-rule="evenodd" d="M14.187,6.874 C14.187,2.212 7.838,0.525 7.838,0.525 C7.838,0.525 1.488,2.206 1.488,6.874 C1.488,11.543 1.499,12.140 0.430,13.224 C0.430,13.224 1.952,17.456 5.721,17.456 C5.721,17.456 4.663,16.415 4.663,11.107 C4.663,11.107 2.547,10.656 2.547,6.874 C5.234,6.874 6.779,8.991 6.779,8.991 L6.779,13.224 L7.838,14.282 L8.896,13.224 L8.896,8.991 C8.896,8.991 10.307,6.874 13.128,6.874 C13.128,10.601 11.012,11.107 11.012,11.107 C11.012,16.393 9.954,17.456 9.954,17.456 C13.723,17.456 15.245,13.224 15.245,13.224 C14.092,12.055 14.187,11.537 14.187,6.874 Z"/>
</svg>
